<?xml version="1.0" encoding="utf-8"?>
<!-- Generator: Adobe Illustrator 19.2.1, SVG Export Plug-In . SVG Version: 6.00 Build 0)  -->
<svg version="1.1" id="Layer_1" xmlns="http://www.w3.org/2000/svg" xmlns:xlink="http://www.w3.org/1999/xlink" x="0px" y="0px"
	 viewBox="0 0 78 150" style="enable-background:new 0 0 78 150;" xml:space="preserve">
<style type="text/css">
	.st0{fill:#96B98A;}
	.st1{fill:#E1B98A;}
	.st2{fill:#87A77C;}
	.st3{fill:#CCA87E;}
	.st4{fill:#E9BACE;}
	.st5{fill:#FFFFFF;}
	.st6{fill:#F1F2F2;}
	.st7{fill:#CFA6B9;}
	.st8{fill:#947A7C;}
	.st9{fill:#59A7F1;}
	.st10{fill:#F0F1F1;}
	.st11{fill:#59B4FF;}
	.st12{fill:#23C7E3;}
	.st13{fill:#FFED98;}
	.st14{fill:#DBDCDD;}
	.st15{fill:#23B4D1;}
	.st16{fill:#4795F1;}
	.st17{fill:#FEDB8B;}
	.st18{fill:#2270CC;}
	.st19{fill:#FFD624;}
	.st20{fill:#FFB724;}
	.st21{fill:#14DB84;}
	.st22{fill:#14AF68;}
	.st23{fill:#58595B;}
	.st24{fill:#8AA860;}
	.st25{fill:#FF899B;}
	.st26{fill:#FF7A8E;}
	.st27{fill:#7E9B57;}
	.st28{fill:#FFB8C6;}
	.st29{fill:#845B5F;}
	.st30{fill:#F0C956;}
	.st31{fill:#F0BE45;}
	.st32{fill:#E9C956;}
	.st33{fill:#58393E;}
	.st34{fill:#0094D3;}
	.st35{fill:#2484C6;}
	.st36{fill:#8E6D6A;}
	.st37{fill:#826461;}
	.st38{fill:none;stroke:#58393E;stroke-width:4;stroke-linecap:round;stroke-linejoin:round;stroke-miterlimit:10;}
	.st39{fill:#005A99;}
	.st40{fill:#414042;}
	.st41{fill:#3C3B3D;}
	.st42{fill:#005490;}
	.st43{fill:#0087EE;}
	.st44{fill:#4ED1FF;}
	.st45{fill:#C3D79B;}
	.st46{fill:#FFFEEE;}
	.st47{fill:#9CAD8C;}
	.st48{fill:#5B5C5E;}
	.st49{fill:#C4B795;}
</style>
<g>
	<path class="st5" d="M77,8.57v132.86c0,4.18-3.39,7.57-7.57,7.57H8.57C4.39,149,1,145.61,1,141.43V8.57C1,4.39,4.39,1,8.57,1h60.86
		C73.61,1,77,4.39,77,8.57z M72,123V15H6v108H72z M45,136c0-3.31-2.69-6-6-6s-6,2.69-6,6s2.69,6,6,6S45,139.31,45,136z"/>
	<g>
		<path class="st10" d="M17,141.43V123H6V15h11V8.57C17,4.39,20.39,1,24.57,1h-16C4.39,1,1,4.39,1,8.57v132.86
			c0,4.18,3.39,7.57,7.57,7.57h16C20.39,149,17,145.61,17,141.43z"/>
	</g>
	<rect x="6" y="15" class="st23" width="66" height="108"/>
	<circle class="st5" cx="39" cy="136" r="6"/>
	<path class="st10" d="M38,136c0-2.417,1.437-4.498,3.5-5.448C40.738,130.201,39.893,130,39,130c-3.31,0-6,2.69-6,6s2.69,6,6,6
		c0.893,0,1.738-0.201,2.5-0.552C39.437,140.498,38,138.417,38,136z"/>
	<polygon class="st48" points="6,15 6,110.185 59.713,15 	"/>
</g>
<g>
	<path class="st49" d="M69.43,0H8.57C3.845,0,0,3.844,0,8.57v132.86c0,4.726,3.845,8.57,8.57,8.57H69.43
		c4.726,0,8.57-3.845,8.57-8.57V8.57C78,3.844,74.155,0,69.43,0z M76,141.43c0,3.623-2.947,6.57-6.57,6.57H8.57
		C4.947,148,2,145.053,2,141.43V8.57C2,4.947,4.947,2,8.57,2H69.43C73.053,2,76,4.947,76,8.57V141.43z"/>
	<path class="st49" d="M39,129c-3.859,0-7,3.141-7,7s3.141,7,7,7s7-3.141,7-7S42.859,129,39,129z M39,141c-2.757,0-5-2.243-5-5
		s2.243-5,5-5s5,2.243,5,5S41.757,141,39,141z"/>
	<path class="st49" d="M30,9h18c0.553,0,1-0.448,1-1s-0.447-1-1-1H30c-0.553,0-1,0.448-1,1S29.447,9,30,9z"/>
	<circle class="st49" cx="25" cy="8" r="1"/>
	<path class="st49" d="M72,14H6c-0.553,0-1,0.448-1,1v108c0,0.553,0.447,1,1,1h66c0.553,0,1-0.447,1-1V15C73,14.448,72.553,14,72,14
		z M71,122H7V16h64V122z"/>
</g>
</svg>
